<svg xmlns="http://www.w3.org/2000/svg" xmlns:xlink="http://www.w3.org/1999/xlink" version="1.1" x="0px" y="0px" viewBox="0 0 100 100" enable-background="new 0 0 100 100" xml:space="preserve"><g><path d="M49.998,87.513c-0.293,0-0.585-0.064-0.856-0.192L7.771,67.724c-0.998-0.473-1.424-1.666-0.951-2.664   c0.473-0.999,1.667-1.423,2.664-0.951L49.998,83.3l40.519-19.191c0.999-0.472,2.191-0.047,2.664,0.951   c0.473,0.999,0.047,2.191-0.951,2.664L50.854,87.32C50.583,87.448,50.291,87.513,49.998,87.513z M49.998,70.784   c-0.293,0-0.585-0.064-0.856-0.192L7.771,50.998c-0.998-0.473-1.424-1.665-0.951-2.664s1.664-1.424,2.664-0.951l40.515,19.188   l40.519-19.188c1.003-0.472,2.191-0.046,2.664,0.951c0.473,0.999,0.047,2.191-0.951,2.664L50.854,70.592   C50.583,70.72,50.291,70.784,49.998,70.784z M49.998,53.708c-0.287,0-0.574-0.062-0.841-0.186L9.015,34.912   c-0.707-0.327-1.159-1.035-1.159-1.814s0.452-1.487,1.159-1.814l40.143-18.61c0.533-0.248,1.148-0.248,1.682,0l40.146,18.61   c0.707,0.327,1.159,1.035,1.159,1.814s-0.452,1.487-1.159,1.814l-40.146,18.61C50.572,53.646,50.285,53.708,49.998,53.708z    M14.61,33.098l35.388,16.406l35.391-16.406L49.998,16.691L14.61,33.098z"/></g></svg>
