<svg xmlns="http://www.w3.org/2000/svg" xmlns:xlink="http://www.w3.org/1999/xlink" xmlns:sketch="http://www.bohemiancoding.com/sketch/ns" viewBox="0 0 26 25" version="1.1" x="0px" y="0px"><title>expression_082-wonder-face-avatar-emoticon</title><desc>Created with Sketch.</desc><g stroke="none" stroke-width="1" fill="none" fill-rule="evenodd" sketch:type="MSPage"><g sketch:type="MSLayerGroup" transform="translate(-48.000000, -384.000000)" fill="#000000"><path d="M49,401.005798 C49,402.104474 49.8990591,403 51.0079301,403 L70.9920699,403 C72.1041965,403 73,402.107553 73,401.005798 L73,386.994202 C73,385.895526 72.1009409,385 70.9920699,385 L51.0079301,385 C49.8958035,385 49,385.892447 49,386.994202 L49,401.005798 Z M51.0079301,384 L70.9920699,384 C72.6533038,384 74,385.343312 74,386.994202 L74,401.005798 C74,402.65945 72.6568766,404 70.9920699,404 L51.0079301,404 C49.3466962,404 48,402.656688 48,401.005798 L48,386.994202 C48,385.34055 49.3431234,384 51.0079301,384 Z" sketch:type="MSShapeGroup"/></g><path d="M17.5,10.5 C18.3284271,10.5 19,9.71649831 19,8.75 C19,7.78350169 18.3284271,7 17.5,7 C16.6715729,7 16,7.78350169 16,8.75 C16,9.71649831 16.6715729,10.5 17.5,10.5 Z M8.50305078,10.5 C7.67462366,10.5 7.00305078,9.71649831 7.00305078,8.75 C7.00305078,7.78350169 7.67462366,7 8.50305078,7 C9.33147791,7 10.0030508,7.78350169 10.0030508,8.75 C10.0030508,9.71649831 9.33147791,10.5 8.50305078,10.5 Z M11.4222866,14.9321488 C11.5122167,14.7902981 11.7139874,14.5527255 12.0222489,14.3118866 C12.7740761,13.7244981 13.7116406,13.4915295 14.8787035,13.8155198 C15.1447831,13.8893866 15.420364,13.7335674 15.4942308,13.4674879 C15.5680975,13.2014084 15.4122783,12.9258274 15.1461988,12.8519607 C13.6551623,12.4380315 12.3959151,12.7509327 11.4065896,13.5238742 C10.9981933,13.8429465 10.7244306,14.1652852 10.5777134,14.3967086 C10.4298557,14.629931 10.4990575,14.9388575 10.7322799,15.0867153 C10.9655023,15.234573 11.2744288,15.1653712 11.4222866,14.9321488 Z" fill="#000000" sketch:type="MSShapeGroup"/></g></svg>
