<svg xmlns="http://www.w3.org/2000/svg" xmlns:xlink="http://www.w3.org/1999/xlink" version="1.1" x="0px" y="0px" viewBox="0 0 100 100" enable-background="new 0 0 100 100" xml:space="preserve"><path fill="#000000" d="M93.352,85.398L75.878,67.924c11.553-15.422,10.362-37.368-3.661-51.391C64.529,8.844,54.452,5,44.375,5  S24.221,8.844,16.533,16.533c-15.377,15.377-15.377,40.308,0,55.685c7.688,7.688,17.766,11.533,27.842,11.533  c8.302,0,16.582-2.653,23.549-7.872l17.474,17.474C86.497,94.451,87.936,95,89.375,95c1.439,0,2.878-0.549,3.977-1.648  C95.549,91.155,95.549,87.595,93.352,85.398z M24.488,64.262c-5.313-5.312-8.238-12.375-8.238-19.887s2.925-14.575,8.238-19.887  c5.312-5.312,12.375-8.238,19.887-8.238s14.575,2.925,19.887,8.238C69.575,29.8,72.5,36.863,72.5,44.375s-2.925,14.575-8.238,19.888  C58.95,69.575,51.888,72.5,44.375,72.5S29.8,69.575,24.488,64.262z"/></svg>
